# xmcd CD database file
#
# Track frame offsets:
#	150
#	13460
#	31957
#	57430
#	75405
#	91732
#	115411
#	134962
#
# Disc length: 2059 seconds
#
# Revision: 0
# Processed by: cddbd v1.4PL0 Copyright (c) Steve Scherf et al.
# Submitted via: CDex 1.50Beta3
#
DISCID=6a080908
DTITLE=Melissa Stylianou - It never entered my mind...
DYEAR=1999
DGENRE=Jazz
TTITLE0=It might as well be spring
TTITLE1=Tea for two
TTITLE2=It never entered my mind
TTITLE3=You're Blase
TTITLE4=Never will I marry
TTITLE5=Triste
TTITLE6=Stormy weather
TTITLE7=But not for me
EXTD=YEAR: 1999
EXTT0=
EXTT1=
EXTT2=
EXTT3=
EXTT4=
EXTT5=
EXTT6=
EXTT7=
PLAYORDER=
